<svg id="Diseño" xmlns="http://www.w3.org/2000/svg" viewBox="0 0 543.01 369.83"><defs><style>.cls-1{fill:#eb8102;}.cls-2{opacity:0.74;}.cls-3,.cls-4,.cls-5,.cls-6{font-size:57.73px;}.cls-3,.cls-4,.cls-5,.cls-6,.cls-7,.cls-8{fill:#fff;}.cls-3,.cls-4,.cls-5,.cls-6,.cls-8{font-family:Poppins-Light, Poppins;font-weight:300;}.cls-3{letter-spacing:0.03em;}.cls-4{letter-spacing:0.03em;}.cls-5{letter-spacing:0.03em;}.cls-6{letter-spacing:0.03em;}.cls-8{font-size:75.23px;letter-spacing:0.03em;}</style></defs><path class="cls-1" d="M294.51,55.66c-2.64-3.51-7.19-6-13.54-6h-.64l-3.95.11c.06-1.07.15-2.9.27-4.88.17-3,.43-6.5.6-7.5a18.81,18.81,0,0,1,1-4.32,3.24,3.24,0,0,1,.88-1.3,1.88,1.88,0,0,1,1.26-.41,5.15,5.15,0,0,1,.62.06,21.14,21.14,0,0,0,3,.26,7.08,7.08,0,0,0,5.46-2A10.51,10.51,0,0,0,291.78,24a10.73,10.73,0,0,0,.14-1.77,10.61,10.61,0,0,0-2.27-6.61,7.32,7.32,0,0,0-5-2.93c.11-.32.22-.63.3-.93a8.69,8.69,0,0,0,.21-2,9,9,0,0,0-.84-3.89,6.39,6.39,0,0,0-3.55-3.34,9.89,9.89,0,0,0-3.6-.73,7.17,7.17,0,0,0-6.22,3.58c-.2.32-.39.62-.57.89-.17-.22-.35-.43-.54-.65-1.56-1.73-3.83-3.81-7.13-3.87a7.66,7.66,0,0,0-5.11,2.09,17.36,17.36,0,0,0-3.64,4.81h-.36a9.1,9.1,0,0,0-5.79,1.92c-2,1.63-3.4,4.5-3.47,8.54v.19a6.53,6.53,0,0,0,3.48,6A11.22,11.22,0,0,0,253,26.42a16.33,16.33,0,0,0,2.3-.15,13.93,13.93,0,0,1,6,1.8c2.62,1.61,5.1,4.23,5.45,10.18.24,4.84.32,7.82.32,9.61,0,.9,0,1.51-.05,1.87,0,.08-.06.18-.1.27l-3.86.1h0a28.52,28.52,0,0,0-8,1.58,15.48,15.48,0,0,0-5.87,3.62,10.28,10.28,0,0,0-2.91,7.3,14.81,14.81,0,0,0,.69,4.33c1.91,6.23,7.06,18.54,11.78,29.43s9,20.25,9,20.25a5.13,5.13,0,0,0,4.79,2.74h.07a6.13,6.13,0,0,0,5-3.45c.81-1.35,2.35-4.41,4.33-8.51,2.95-6.14,6.79-14.47,10-21.89,1.58-3.71,3-7.18,4.07-10.06a34,34,0,0,0,2-6.75c.06-.6.1-1.23.1-1.88a18.52,18.52,0,0,0-3.55-11.15"/><g class="cls-2"><text class="cls-3" transform="translate(-0.91 195.73) scale(0.7)">GRACIAS</text><text class="cls-4" transform="translate(179.11 195.73)"> </text><text class="cls-5" transform="translate(196.66 195.73) scale(0.7)">POR</text><text class="cls-4" transform="translate(278.64 195.73)"> </text><text class="cls-5" transform="translate(296.19 195.73) scale(0.7)">SUMARTE</text><text class="cls-6" transform="translate(479.93 195.73)"> </text><text class="cls-3" transform="translate(497.48 195.73) scale(0.7)">AL</text><polygon class="cls-7" points="356.1 343.44 360.25 341.25 359.46 345.88 362.82 349.16 358.17 349.83 356.1 354.04 354.02 349.83 349.37 349.16 352.73 345.88 351.94 341.25 356.1 343.44"/><polygon class="cls-7" points="185.68 343.44 189.84 341.25 189.04 345.88 192.41 349.16 187.76 349.83 185.68 354.04 183.6 349.83 178.96 349.16 182.32 345.88 181.53 341.25 185.68 343.44"/><text class="cls-8" transform="translate(203.51 366.32) scale(0.7)">CLUB</text><path class="cls-7" d="M122.76,312.93a1.05,1.05,0,0,0,0,.19l.07.27c1.24,4.91,1.22,8.08.6,10.53a6.71,6.71,0,1,1-8.28-8.23,6.51,6.51,0,0,1,6,1.33,2.66,2.66,0,0,0,.3-2.16c-.72-2.28-3.32-2.75-6.91-1.78l-26.16,7.14c-8.47,2.31-12.88.64-14.59-5.62a14.8,14.8,0,0,1,4-14.35c-7.67-1.27-13.17-6.2-15.3-14-3.22-11.79,3.72-21.89,18.18-25.84,7.19-2,13.49-1.7,18.47.61,1.25-1.23,2.09-2.85,1.72-4.23-.51-1.84-1.71-1.91-1.71-1.91a7.36,7.36,0,0,1-7.79-5.69,7.69,7.69,0,0,1,14.78-4.23c1.73,6.35-1.23,12.9-5.06,17a18.67,18.67,0,0,1,8.28,11.5c3.27,12-3.63,21.86-18.09,25.81A34.12,34.12,0,0,1,80,300.46c-1.3,1.05-2.66,2.6-2.15,4.45.42,1.56,1.44,2.37,4.75,1.47l21.55-5.88c7.83-2.13,15.25.79,18.55,12.16ZM80.13,281.42c3.94,14.46,6.18,17.21,10.69,16,4.79-1.3,5-4.71,1-19.17S86,261,81.25,262.32C76.74,263.55,76.18,267,80.13,281.42Z"/><path class="cls-7" d="M157,252.82a8.73,8.73,0,0,1-7,10.6c-4.88.95-9.19-2.2-10.17-7.26a12.9,12.9,0,0,1-.29-2s-.22-.63-1.44-.4c-2.06.4-2.63,6.45-2.75,10.36l5.91,30.36c1.33-.16,2.59-.21,3.92-.38l.47,2.44c-4.29.45-8.63,1.1-12.94,1.94s-8.49,1.84-12.73,3.06l-.47-2.44c1.27-.44,2.47-.77,3.77-1.12l-3.89-20-4.18-21a26.63,26.63,0,0,1-3.9.47l-.47-2.43c6.7-1,13.45-2.33,19.74-6l1.69-.33,1.75,9c.91-3.29,3.61-10.43,11.1-11.89C151.33,244.69,156,247.48,157,252.82Z"/><path class="cls-7" d="M179.27,264.8l.21,1.71c2.08,17.05,3.92,21.06,12,20.07,11.08-1.35,14.56-13,14.56-13l1.43.69a20.48,20.48,0,0,1-18.2,16.27c-15.54,1.9-26.37-6.49-28.24-21.75-1.83-15,6.19-25.66,20.89-28.13l.19,0,.57-.07.47-.06c13.51-1.17,21.29,6.63,24.06,19.85l.13,1Zm-.28-2.27,11.65-1.43c-2-15.13-3.71-18.58-7.72-18.38C178.69,243.53,177.42,247.33,179,262.53Z"/><path class="cls-7" d="M229.2,260.21l.08,1.72c.84,17.16,2.38,21.29,10.48,20.89,11.16-.55,15.47-11.94,15.47-11.94l1.38.79a20.47,20.47,0,0,1-19.34,14.9c-15.63.77-25.83-8.38-26.58-23.73-.74-15.06,8-25.15,22.88-26.54h.19l.57,0,.48,0c13.56-.19,20.75,8.15,22.55,21.54l.06,1.05Zm-.12-2.29,11.73-.57c-.94-15.25-2.35-18.81-6.37-18.9C230.16,239,228.62,242.66,229.08,257.92Z"/><path class="cls-7" d="M318.66,284.06l-.07,2.48a149.06,149.06,0,0,0-26.15-.77l.08-2.48,3.63-.18,1-35c.09-3-1.28-5.29-4.81-5.39-3.81-.12-6.65,2.19-8.22,3.76l-1.07,36.26c1.33,0,2.66.27,4,.41l-.08,2.48a149,149,0,0,0-26.14-.77l.07-2.48,3.83-.18L266,240.39a27,27,0,0,1-3.9-.4l.07-2.48c1.71.14,3.53.2,5.24.25A44.36,44.36,0,0,0,282.73,236l1.72.05-.25,8.5c3.17-3.92,9-8.71,17.44-8.47,9.06.27,14.14,6.24,13.82,17.22l-.89,30.24C315.9,283.69,317.33,283.92,318.66,284.06Z"/><path class="cls-7" d="M363.44,265.84l-.25,1.7c-2.49,17-1.77,21.35,6.26,22.53,11.05,1.61,17.48-8.73,17.48-8.73l1.2,1a20.48,20.48,0,0,1-21.85,10.89c-15.49-2.27-23.73-13.21-21.51-28.42,2.19-14.92,12.74-23.12,27.57-21.63l.19,0,.57.08.47.07c13.34,2.44,18.79,12,18,25.49l-.16,1Zm.33-2.26,11.62,1.7c2-15.14,1.32-18.91-2.61-19.77C368.49,245.17,366.26,248.51,363.77,263.58Z"/><path class="cls-7" d="M411.07,273.17a21.16,21.16,0,0,1,8.59,4.06l3.66-16.5c.68-3.07.78-6.18-4.25-7.3-5.22-1.15-7.28,1.52-7.28,1.52,2.5,2.41,3.82,5.25,3.29,7.67a7.74,7.74,0,0,1-9.47,5.63,7.21,7.21,0,0,1-5.45-8.94c1.55-7,10.61-9.48,21-7.18,15.94,3.54,20.15,12.29,18,21.89l-4.84,21.81c-.66,3,.2,4.84,2.44,5.33a4,4,0,0,0,4.35-2l1.21.26s-3.58,8.21-14.21,5.85c-7.08-1.57-10.53-4.1-11.59-8.15-1.78,1.86-5.74,4.3-12.92,2.71-9.69-2.15-14.18-7.94-12.17-17C393.27,274.5,400.91,270.92,411.07,273.17Zm1.87,23.3a4.37,4.37,0,0,0,3.35-.53,22.48,22.48,0,0,1,.55-6l2.51-11.27-.56-.13c-5.59-1.24-9.17,2.08-10.37,7.48C407.16,291.67,408.84,295.56,412.94,296.47Z"/><path class="cls-7" d="M476.43,305.84c-5.31,5.33-12.82,9.33-20.34,7.16-8.71-2.51-12.17-9.46-9.11-20.1l7.84-27.25-5-1.73.69-2.38,5,1.73,2.74-9.54c11.47,3.3,17.56-1.31,17.56-1.31l1.74.5-4.46,15.51c3.21.92,6.39,1.64,10.2,2.53l-.69,2.39c-3.93-.83-6.89-1.59-10.22-2.45l-9.08,31.56c-.9,3.12,0,5.47,2.49,6.18,3.94,1.14,9-3.27,9-3.27Z"/></g></svg>