<svg id="Diseño" xmlns="http://www.w3.org/2000/svg" viewBox="0 0 60.95 61.81"><defs><style>.cls-1{fill:#fff;}.cls-2{fill:none;stroke:#105a5c;stroke-linecap:round;stroke-linejoin:round;stroke-width:1.53px;}.cls-3{fill:#ff8700;}</style></defs><circle class="cls-1" cx="30.48" cy="30.8" r="30.48"/><polygon class="cls-2" points="18.61 15.44 21.9 50.85 39.87 50.85 43.16 15.44 18.61 15.44"/><line class="cls-2" x1="14.77" y1="15.44" x2="47.01" y2="15.44"/><polygon class="cls-2" points="18.61 15.44 21.37 9.16 39.3 9.16 43.16 15.44 18.61 15.44"/><path class="cls-3" d="M22.92,30.36a7.39,7.39,0,0,1,.34-1.16,3.27,3.27,0,0,1,3.06-2,4.21,4.21,0,0,1,2.78.95c.69.54,1.35,1.11,2,1.66l.17.16c.28-.26.56-.52.84-.76a10.87,10.87,0,0,1,2.15-1.55,3.77,3.77,0,0,1,3.57-.06,3.59,3.59,0,0,1,1.82,3.46,4.27,4.27,0,0,1-.45,1.65,3,3,0,0,1-2.51,1.67,4.53,4.53,0,0,1-3.57-1c-.59-.49-1.14-1-1.71-1.52l-.14-.13c-.32.3-.62.61-.95.89a16.41,16.41,0,0,1-1.48,1.16,4.39,4.39,0,0,1-3.65.5A3.13,3.13,0,0,1,23,31.64c0-.12,0-.24-.07-.37Zm9.21.41A13.57,13.57,0,0,0,34,32.38a3.79,3.79,0,0,0,1.89.67A2.17,2.17,0,0,0,38.36,31a2.27,2.27,0,0,0-1.3-2.25,2.5,2.5,0,0,0-1.9,0A11.66,11.66,0,0,0,32.13,30.77Zm-1.65,0a12.52,12.52,0,0,0-2.93-2,2.92,2.92,0,0,0-1.65-.16A2.27,2.27,0,0,0,26,33a2.91,2.91,0,0,0,1.21,0,3.87,3.87,0,0,0,1.71-.84C29.45,31.7,30,31.25,30.48,30.8Z"/></svg>