<svg id="Diseño" xmlns="http://www.w3.org/2000/svg" viewBox="0 0 178 178"><defs><style>.cls-1{fill:#ed8302;}.cls-2,.cls-3{fill:#fff;}.cls-2{stroke:#ed8302;stroke-miterlimit:10;stroke-width:1.01px;}</style></defs><circle class="cls-1" cx="89" cy="89" r="87.42"/><path class="cls-2" d="M89,141.29H44.68c-2.45,0-3.21-.77-3.21-3.24q0-25.61,0-51.21a1.5,1.5,0,0,0-1-1.57,13,13,0,0,1-7.35-11.45,20.46,20.46,0,0,1,2.92-12.33c4.42-7.5,8.39-15.26,12.5-22.93a3.13,3.13,0,0,1,3.1-1.86q37.33,0,74.67,0a3.14,3.14,0,0,1,3.11,1.84c4.91,9.14,9.88,18.25,14.78,27.39a5.66,5.66,0,0,1,.61,2.46,49.71,49.71,0,0,1-.14,6.8,12.49,12.49,0,0,1-7.27,10.11,1.42,1.42,0,0,0-.9,1.53q0,25.5,0,51a10.86,10.86,0,0,1-.05,1.4,2.28,2.28,0,0,1-2.12,2c-.4,0-.81,0-1.21,0Zm42.75-4.81V86.73c-5-.41-7.93-2.19-10.61-5.55a13.26,13.26,0,0,1-21.45,0,13.12,13.12,0,0,1-21.35,0,13,13,0,0,1-10.74,5.51A12.83,12.83,0,0,1,56.94,81.1a13.27,13.27,0,0,1-10.63,5.58v49.79h9.42V121.09q0-9.81,0-19.64c0-2.09.84-2.92,2.91-2.92,3.51,0,7,0,10.52,0,4.11,0,8.22,0,12.33,0,1.88,0,2.74.86,2.79,2.75,0,.27,0,.54,0,.8v34.4Zm-71.18,0h18.9V103.35H60.55Zm41.28-71.3h15.89c-.06-.26-.09-.46-.15-.65q-3.72-11.18-7.44-22.37a.86.86,0,0,0-1-.7c-3.17,0-6.34,0-9.51,0a4.15,4.15,0,0,0-.74.12C99.87,49.49,100.85,57.32,101.83,65.18Zm-25.62,0c1-7.94,2-15.79,3-23.74-3.49,0-6.79,0-10.09,0-.75,0-1,.25-1.24.93-1.7,5.2-3.44,10.38-5.17,15.56-.8,2.4-1.6,4.79-2.42,7.27Zm38.7-23.74c2.69,8,5.31,15.9,7.92,23.7h15.55c0-.12,0-.15,0-.18q-6.24-11.52-12.49-23a1,1,0,0,0-.76-.46C121.77,41.46,118.43,41.47,114.91,41.47ZM39.57,65.15a2.28,2.28,0,0,0,.43.09c4.85,0,9.69,0,14.53,0,.71,0,.79-.42.95-.9Q58.89,54.17,62.3,44c.27-.81.53-1.62.82-2.51-3.35,0-6.55,0-9.76,0a1.36,1.36,0,0,0-1.4.83c-2.68,5-5.41,10-8.13,15ZM97,65.21c-1-8-2-15.82-3-23.67H84l-3,23.67ZM59.32,70.07c0,1.35-.08,2.65,0,3.94a7.9,7.9,0,0,0,5.34,7.31,8,8,0,0,0,8.72-1.77c2.85-2.61,2.67-6,2.47-9.48Zm80.76,0H123.57a42.81,42.81,0,0,0,0,4.54,8.05,8.05,0,0,0,6.3,7.06A8.45,8.45,0,0,0,139,77.75C140.44,75.35,140.07,72.74,140.08,70.08Zm-59.35,0c0,1.32,0,2.58,0,3.84a8.25,8.25,0,0,0,11.56,7.29c4.77-2.15,5.5-6.28,4.92-11.13Zm21.42,0c0,1.43-.07,2.79,0,4.14a8.21,8.21,0,0,0,11,7.18c5.06-2,6-6.19,5.37-11.32ZM38,70.05c0,1.52-.09,2.92,0,4.3a8.21,8.21,0,0,0,11.09,7c5.12-2,6-6.39,5.28-11.31Z"/><path class="cls-3" d="M113.92,110.35a3.9,3.9,0,0,0-3.26-1.45h-.15l-1,0c0-.26,0-.7.06-1.18,0-.73.1-1.56.14-1.8a4.24,4.24,0,0,1,.24-1,.84.84,0,0,1,.21-.32.44.44,0,0,1,.3-.09h.15a5,5,0,0,0,.73.06,1.73,1.73,0,0,0,1.32-.49,2.58,2.58,0,0,0,.56-1.36,3.22,3.22,0,0,0,0-.43,2.53,2.53,0,0,0-.55-1.59,1.74,1.74,0,0,0-1.21-.71c0-.08,0-.15.07-.22a2.36,2.36,0,0,0,0-.48,2.28,2.28,0,0,0-.2-.94,1.58,1.58,0,0,0-.86-.8,2.37,2.37,0,0,0-.87-.18,1.72,1.72,0,0,0-1.49.87l-.14.21s-.09-.1-.13-.16a2.44,2.44,0,0,0-1.72-.93,1.85,1.85,0,0,0-1.23.51,4.18,4.18,0,0,0-.88,1.16h-.08a2.17,2.17,0,0,0-1.4.47,2.55,2.55,0,0,0-.83,2.05v0a1.59,1.59,0,0,0,.83,1.45,2.77,2.77,0,0,0,1.27.27,3.21,3.21,0,0,0,.56,0,3.31,3.31,0,0,1,1.44.44,2.75,2.75,0,0,1,1.32,2.45c0,1.16.07,1.88.07,2.31,0,.22,0,.37,0,.45s0,0,0,.07l-.93,0h0a7.25,7.25,0,0,0-1.93.38,3.79,3.79,0,0,0-1.42.87,2.54,2.54,0,0,0-.7,1.76,3.38,3.38,0,0,0,.17,1c.46,1.5,1.7,4.46,2.83,7.09s2.16,4.87,2.16,4.87a1.25,1.25,0,0,0,1.16.66h0a1.46,1.46,0,0,0,1.21-.83c.19-.32.57-1.06,1-2,.71-1.48,1.64-3.48,2.4-5.27.38-.89.72-1.73,1-2.42a7.48,7.48,0,0,0,.47-1.63,3.4,3.4,0,0,0,0-.45,4.46,4.46,0,0,0-.86-2.69"/></svg>