<svg id="Diseño" xmlns="http://www.w3.org/2000/svg" viewBox="0 0 248.61 60.4"><defs><style>.cls-1{fill:#e97218;}</style></defs><path class="cls-1" d="M62,52.72V53a10.24,10.24,0,0,1-1.05,5,3.24,3.24,0,1,1-2.8-4.9,3.13,3.13,0,0,1,2.61,1.39,1.28,1.28,0,0,0,.42-1c-.05-1.15-1.2-1.71-3-1.71h-13c-4.22,0-6.06-1.34-6.06-4.48a7.16,7.16,0,0,1,3.67-6.18,8.9,8.9,0,0,1-5.32-8.5c0-5.9,4.5-9.73,11.7-9.73,3.58,0,6.47.92,8.49,2.63A2.31,2.31,0,0,0,59,23.73c0-.92-.55-1.11-.55-1.11A3.54,3.54,0,0,1,55.53,19a3.69,3.69,0,0,1,7.38-.09c0,3.18-2.2,5.86-4.49,7.29a9.11,9.11,0,0,1,2.38,6.41c0,6-4.45,9.75-11.65,9.75a16.31,16.31,0,0,1-5.41-.88c-.74.32-1.56.88-1.56,1.8s.37,1.29,2,1.29H54.93c3.9,0,7,2.31,7.06,8ZM46.21,32.59c0,7.25.69,8.82,2.94,8.82S52,39.84,52,32.59s-.51-8.76-2.89-8.76S46.21,25.35,46.21,32.59Z"/><path class="cls-1" d="M86,27.24a4.21,4.21,0,0,1-4.26,4.39,4.16,4.16,0,0,1-4.13-4.39,7.17,7.17,0,0,1,0-1s0-.32-.64-.32c-1,0-1.84,2.81-2.25,4.66v15c.64,0,1.24.13,1.88.18V47c-2.06-.18-4.17-.28-6.28-.28s-4.18.1-6.29.28v-1.2c.65-.09,1.24-.14,1.89-.18V35.73l0-10.34a13.2,13.2,0,0,1-1.88-.13V24.05a25.47,25.47,0,0,0,9.86-1h.83v4.43c.73-1.48,2.66-4.61,6.33-4.61C84.09,22.86,86,24.61,86,27.24Z"/><path class="cls-1" d="M96.47,34.3v.83c0,8.31.64,10.34,4.54,10.34,5.37,0,7.71-5.4,7.71-5.4l.64.42a9.86,9.86,0,0,1-9.63,6.74c-7.53,0-12.2-4.67-12.2-12.1s4.45-12,11.6-12.27h.6c6.51.23,9.77,4.43,10.32,10.94v.5Zm0-1.1h5.64c-.09-7.39-.69-9.15-2.61-9.28C97.43,24.05,96.61,25.81,96.47,33.2Z"/><path class="cls-1" d="M121.6,34.3v.83c0,8.31.64,10.34,4.54,10.34,5.37,0,7.71-5.4,7.71-5.4l.64.42a9.86,9.86,0,0,1-9.64,6.74c-7.52,0-12.2-4.67-12.2-12.1s4.45-12,11.61-12.27h.59c6.52.23,9.78,4.43,10.33,10.94v.5Zm0-1.1h5.64c-.09-7.39-.69-9.15-2.61-9.28C122.56,24.05,121.74,25.81,121.6,33.2Z"/><path class="cls-1" d="M166,45.75V47a71.31,71.31,0,0,0-12.57,0v-1.2l1.74-.14V28.67a2.24,2.24,0,0,0-2.38-2.54,5.47,5.47,0,0,0-3.9,1.94V45.61c.64,0,1.28.09,1.92.14V47a71.2,71.2,0,0,0-12.56,0v-1.2l1.83-.14V25.39a13.2,13.2,0,0,1-1.88-.13V24.05c.82.05,1.69.05,2.52.05A21.21,21.21,0,0,0,148,23h.83v4.11a10.4,10.4,0,0,1,8.25-4.34c4.36,0,6.88,2.82,6.88,8.12V45.57C164.62,45.61,165.31,45.7,166,45.75Z"/><path class="cls-1" d="M188.09,34.3v.83c0,8.31.64,10.34,4.54,10.34,5.37,0,7.71-5.4,7.71-5.4l.64.42a9.86,9.86,0,0,1-9.63,6.74c-7.53,0-12.2-4.67-12.2-12.1s4.44-12,11.6-12.27h.6c6.51.23,9.77,4.43,10.32,10.94v.5Zm0-1.1h5.64c-.09-7.39-.69-9.15-2.61-9.28C189.05,24.05,188.23,25.81,188.09,33.2Z"/><path class="cls-1" d="M212.26,33.84a10,10,0,0,1,4.45,1V26.69c0-1.53-.28-3-2.76-3s-3.25,1.47-3.25,1.47A4.25,4.25,0,0,1,213,28.44a3.73,3.73,0,0,1-3.86,3.65,3.47,3.47,0,0,1-3.48-3.65c0-3.46,4-5.58,9.08-5.58,7.84,0,10.73,3.69,10.73,8.44V42.1c0,1.48.6,2.26,1.7,2.26A1.92,1.92,0,0,0,229.05,43h.59s-.82,4.25-6,4.25c-3.49,0-5.37-.83-6.29-2.63-.64,1.06-2.25,2.63-5.78,2.63-4.77,0-7.48-2.27-7.48-6.74C204,36.33,207.26,33.84,212.26,33.84Zm3.3,10.8a2.09,2.09,0,0,0,1.51-.6,10.92,10.92,0,0,1-.36-2.91V35.55h-.28c-2.75,0-4.08,1.94-4.08,4.61C212.35,43,213.54,44.64,215.56,44.64Z"/><path class="cls-1" d="M247.84,41.18c-1.74,3.18-4.68,6-8.44,6-4.36,0-6.88-2.77-6.88-8.13V25.39L230,25.26V24.05l2.52.15V19.39c5.73,0,7.94-2.95,7.94-2.95h.87v7.8c1.6,0,3.16-.09,5-.19v1.21c-1.92.13-3.39.18-5,.23V41.37c0,1.56.73,2.53,2,2.53,2,0,3.72-2.72,3.72-2.72Z"/><path class="cls-1" d="M25.15,26.8a7.84,7.84,0,0,0-6.56-2.92h-.31l-1.91.05c0-.52.07-1.41.13-2.38.08-1.47.21-3.16.29-3.65a9.62,9.62,0,0,1,.46-2.1,1.72,1.72,0,0,1,.43-.64.92.92,0,0,1,.61-.19l.3,0a10.11,10.11,0,0,0,1.47.13,3.42,3.42,0,0,0,2.64-1,5.22,5.22,0,0,0,1.13-2.76,6.47,6.47,0,0,0,.06-.87,5.21,5.21,0,0,0-1.1-3.22,3.49,3.49,0,0,0-2.44-1.42l.15-.46a4.62,4.62,0,0,0,.1-1,4.41,4.41,0,0,0-.41-1.9A3.14,3.14,0,0,0,18.47.92,4.82,4.82,0,0,0,16.73.57a3.47,3.47,0,0,0-3,1.74l-.28.44c-.08-.11-.17-.21-.26-.32A4.76,4.76,0,0,0,9.73.55a3.71,3.71,0,0,0-2.47,1A8.32,8.32,0,0,0,5.5,3.91H5.32a4.39,4.39,0,0,0-2.8.94A5.24,5.24,0,0,0,.84,9v.1A3.17,3.17,0,0,0,2.52,12a5.35,5.35,0,0,0,2.56.55,7.87,7.87,0,0,0,1.11-.07,6.75,6.75,0,0,1,2.9.88c1.27.78,2.47,2.06,2.64,5,.12,2.35.15,3.8.15,4.68,0,.43,0,.73,0,.9l0,.14L10,24.1h0a13.41,13.41,0,0,0-3.88.77,7.47,7.47,0,0,0-2.84,1.76,5,5,0,0,0-1.41,3.55,7.18,7.18,0,0,0,.34,2.11c.92,3,3.41,9,5.7,14.33s4.34,9.86,4.34,9.86a2.46,2.46,0,0,0,2.32,1.34h0A3,3,0,0,0,17,56.14c.39-.66,1.14-2.15,2.1-4.15,1.42-3,3.28-7,4.81-10.66.77-1.8,1.46-3.49,2-4.9a16.28,16.28,0,0,0,.95-3.28c0-.3,0-.6,0-.92a9.08,9.08,0,0,0-1.71-5.43"/></svg>