<svg id="Diseño" xmlns="http://www.w3.org/2000/svg" viewBox="0 0 60.95 60.95"><defs><style>.cls-1{fill:#fff;}.cls-2{fill:#ff8700;}.cls-3{fill:#105a5c;}</style></defs><circle class="cls-1" cx="30.48" cy="30.48" r="30.48"/><path class="cls-2" d="M49.64,14.84a3.9,3.9,0,0,0,.69-1.51A2.6,2.6,0,0,0,50,11.4a3.8,3.8,0,0,0-1-1.07,2.78,2.78,0,0,0-2.84-.23l-.4.17c0-.11,0-.23,0-.35A3.83,3.83,0,0,0,44.5,7a2.91,2.91,0,0,0-2.13-.47,7,7,0,0,0-2.31.77L40,7.21a3.45,3.45,0,0,0-2.3-.69,4.55,4.55,0,0,0-3.17,2.06l0,.06a3,3,0,0,0-.45.84,2.59,2.59,0,0,0,.08,2A4.09,4.09,0,0,0,35.45,13a5.57,5.57,0,0,0,.77.48.59.59,0,0,1,.08.08,5.12,5.12,0,0,1,1.38,1.9A4.4,4.4,0,0,1,38,16.75a4.89,4.89,0,0,1-.63,2.69c-.12.23-.25.47-.41.72-1.11,1.68-1.81,2.7-2.24,3.29-.22.31-.38.5-.47.62l-.1.06-1.24-.85h0A10.8,10.8,0,0,0,30,22a6,6,0,0,0-2.73-.14,4.37,4.37,0,0,0-2.7,1.78,6.4,6.4,0,0,0-.83,1.61l-.12.35c-.47,1.33-1,3.29-1.61,5.49h0c-.24.9-.49,1.85-.74,2.81s-.51,2.07-.77,3.09c-.07.27-.13.54-.2.81-.25,1-.48,2-.7,2.92s-.48,2-.67,2.81c0,0,0,.06,0,.09-.43,1.83-.7,3-.7,3a2,2,0,0,0,.85,2h0a1.71,1.71,0,0,0,.79.31,2.86,2.86,0,0,0,1.64-.31c.24-.1.58-.27,1-.5.64-.34,1.47-.8,2.44-1.35,1.19-.67,2.58-1.48,4-2.33l2.62-1.57.85-.52,1-.62c1.4-.87,2.69-1.71,3.73-2.43l.16-.12c.57-.4,1.06-.75,1.44-1.07a5.79,5.79,0,0,0,.66-.62,7.68,7.68,0,0,0,.49-.61,8,8,0,0,0,1.59-4.54v-.19a5.76,5.76,0,0,0-.63-2.47l-.12-.22h0a6,6,0,0,0-.51-.77,7.66,7.66,0,0,0-1.56-1.48l-.2-.14-1.28-.87.53-.65c.22-.28.47-.6.75-.92.79-1,1.72-2.08,2-2.38a8.76,8.76,0,0,1,1.26-1.16.47.47,0,0,1,.09-.06,1.42,1.42,0,0,1,.6-.24.66.66,0,0,1,.49.16.9.9,0,0,1,.19.16,6.85,6.85,0,0,0,.9.78,2.93,2.93,0,0,0,1.37.61,2.17,2.17,0,0,0,.84,0,3.47,3.47,0,0,0,1.36-.67c.22-.18.44-.38.67-.6l.09-.09c.17-.18.33-.37.48-.56a4.61,4.61,0,0,0,.88-2.73,2.88,2.88,0,0,0-.87-2.15l.31-.24A3.49,3.49,0,0,0,49.64,14.84Z"/><path class="cls-3" d="M16.47,50.05a1,1,0,0,1-.21,0l-.05,0h-.05L16,49.89a1.26,1.26,0,0,1-.17-.18l0,0a.67.67,0,0,1-.07-.17l0-.09,0,0-5.93-22v0l0-.11a.3.3,0,0,1,0-.13.67.67,0,0,1,0-.2C11.4,18.45,19.08,9.67,29,9.67A15.15,15.15,0,0,1,32.6,10a3.38,3.38,0,0,0,.27,1.62A14.49,14.49,0,0,0,29,11.2c-6.23,0-14.3,4.41-17.28,14.08l-.32,1h36l-.23-1a10.93,10.93,0,0,0-.48-1.6,4.33,4.33,0,0,0,1.38-.68A13.79,13.79,0,0,1,49,26.82V27l0,.07a1.22,1.22,0,0,1,0,.21v0l0,0v.05l-5.94,22v0a.86.86,0,0,1-.11.25v0a1,1,0,0,1-.15.14.63.63,0,0,1-.19.12,1.27,1.27,0,0,1-.28.06ZM36.8,48.51h4.91l2.66-9.89H36.8Zm-11.55,0h10V38.62H24.32Zm-8.18,0h6.64l-.93-9.89H14.4ZM36.8,37.09h8l2.48-9.24H36.8Zm-12.62,0H35.26V27.85h-12ZM14,37.09h8.64l-.87-9.24H11.5Z"/></svg>