<svg id="Diseño" xmlns="http://www.w3.org/2000/svg" viewBox="0 0 60.95 60.95"><defs><style>.cls-1{fill:#fff;}.cls-2,.cls-3{fill:#105a5c;}.cls-2{stroke:#fff;stroke-miterlimit:10;stroke-width:0.92px;}</style></defs><circle class="cls-1" cx="30.48" cy="30.48" r="30.48"/><path class="cls-2" d="M49.68,31a8,8,0,0,1,.43,4.8,3.34,3.34,0,0,0,.3,2.41,5.87,5.87,0,0,1-1,6.37,8.58,8.58,0,0,1-5.1,2.72,55.49,55.49,0,0,1-10,1.18A78.91,78.91,0,0,1,21,48a23.9,23.9,0,0,1-6.62-1.54,6.35,6.35,0,0,1-3.07-9.14.73.73,0,0,0,.1-.56,7.75,7.75,0,0,1-.48-5.36.89.89,0,0,0-.36-1,5.6,5.6,0,0,1-1.95-5.72,15.21,15.21,0,0,1,7.61-10.79,26.72,26.72,0,0,1,13-3.62A29.11,29.11,0,0,1,41.7,12.36a17.63,17.63,0,0,1,8.36,6.51A13.21,13.21,0,0,1,52.45,26C52.48,28.13,51.75,29.43,49.68,31ZM30,13c-.53,0-1.57.05-2.6.16a23.13,23.13,0,0,0-9.89,3.14,12.61,12.61,0,0,0-6.13,8.51c-.47,2.28.37,3.76,2.63,4.31a18.32,18.32,0,0,0,4.12.46c1.4,0,2.8-.25,4.2-.26,4.86,0,9.73,0,14.59,0,1.54,0,3.07.15,4.61.23a15.49,15.49,0,0,0,5.51-.43,3.24,3.24,0,0,0,2.61-3.89,7,7,0,0,0-.18-.91,12.93,12.93,0,0,0-6.71-8.42A26,26,0,0,0,30,13ZM13.44,39.16a3.13,3.13,0,0,0,.08,2.9,4.28,4.28,0,0,0,2.34,2.13,20.47,20.47,0,0,0,2.95.81,74.94,74.94,0,0,0,17.06.75A43.65,43.65,0,0,0,44,44.67a5.38,5.38,0,0,0,3.7-2.52,3,3,0,0,0,.06-3c-.63.12-1.19.26-1.76.31a7.14,7.14,0,0,1-1.73,0,1.57,1.57,0,0,0-1.38.47,4.07,4.07,0,0,1-6.37-.73,1.13,1.13,0,0,1-.08-.22l-.51.4a4.86,4.86,0,0,1-6.09.49.81.81,0,0,0-.61,0c-.67.3-1.3.68-2,.93a5.36,5.36,0,0,1-5.47-.69.7.7,0,0,0-.86-.09,6.4,6.4,0,0,1-4.84.3C15.2,40,14.36,39.56,13.44,39.16Zm33.68-7c-1.67.08-3.25.22-4.82.21-1.35,0-2.69-.31-4-.29-6.58.1-13.15-.3-19.72.29a35.48,35.48,0,0,1-5-.25c-.28,1.49-.33,3,1,4.27a4.89,4.89,0,0,0,4.67,1.39,1,1,0,0,0-.11-.2,1.42,1.42,0,0,1,0-2,1.35,1.35,0,0,1,1.94,0,10.49,10.49,0,0,1,1.67,1.66c1.24,1.59,3.06,1.49,4.64.46l-.53-.6a5.35,5.35,0,0,1-.43-.54,1.32,1.32,0,0,1,.26-1.82,1.37,1.37,0,0,1,1.84.1,29,29,0,0,0,2.33,2.24c1.51,1.19,2.23,1.2,3.94-.36a3,3,0,0,1-.34-.46,2.71,2.71,0,0,1-.35-.78,1.36,1.36,0,0,1,2.42-1c.77,1,1.52,2,2.26,3s1.44,1.17,2.44.29c.33-.29.63-.62.93-.94a1.19,1.19,0,0,1,1.37-.36,5.08,5.08,0,0,0,2.56.19,1.35,1.35,0,0,0,1.35-1.2A5.74,5.74,0,0,0,47.12,32.14Z"/><path class="cls-3" d="M18.16,21a4.57,4.57,0,0,1-.42,2.83.85.85,0,0,1-1.17.4A.88.88,0,0,1,16.25,23,5.93,5.93,0,0,1,18.16,21Z"/><path class="cls-3" d="M25.46,16a4.71,4.71,0,0,1-1.32,2.47.84.84,0,0,1-1.23-.08A.74.74,0,0,1,23,17.26c.74-.52,1.55-1,2.32-1.43Z"/><path class="cls-3" d="M40.28,16.14a4.65,4.65,0,0,1,1.56,2.33.86.86,0,1,1-1.65.44A5.56,5.56,0,0,1,40.28,16.14Z"/><path class="cls-3" d="M27.12,23.11a4.5,4.5,0,0,1-.46,2.67A.84.84,0,1,1,25.2,25c.53-.7,1.14-1.33,1.71-2Z"/><path class="cls-3" d="M42.62,22.34a4.62,4.62,0,0,1,1.48,2.21.85.85,0,1,1-1.63.45A5.27,5.27,0,0,1,42.62,22.34Z"/><path class="cls-3" d="M35.58,23a4.53,4.53,0,0,1,.92,2.55.81.81,0,0,1-.82.91.79.79,0,0,1-.86-.92c.12-.87.34-1.71.52-2.57Z"/><path class="cls-3" d="M31.58,15.9a4.73,4.73,0,0,1,2.08,1.67.84.84,0,0,1-.25,1.25.78.78,0,0,1-1.17-.35c-.35-.8-.59-1.65-.87-2.47Z"/></svg>