<svg id="Diseño" xmlns="http://www.w3.org/2000/svg" viewBox="0 0 176.37 176.51"><defs><style>.cls-1{fill:#ed8302;}.cls-2{fill:none;stroke:#fff;stroke-linejoin:round;stroke-width:3.03px;}.cls-3{font-size:35.46px;font-family:Poppins-SemiBold, Poppins;font-weight:600;letter-spacing:-0.01em;}.cls-3,.cls-4{fill:#fff;}</style></defs><circle class="cls-1" cx="88.19" cy="88.4" r="87.42"/><path class="cls-2" d="M34.64,122.12c-1.42-6.53-5.36-10.45-12-11.69V96.1h4.79c3.15,0,5.63-1.2,6.95-4.13a8,8,0,0,0-1-8.68,6.2,6.2,0,0,0-4.84-2.49c-1.92-.07-3.85,0-5.95,0,0-.69-.09-1.24-.09-1.78,0-3.8,0-7.61,0-11.41,0-.69-.06-1.29.92-1.48,6.06-1.2,9.64-5,11-10.91,0-.15.1-.29.18-.54H112v67.45Z"/><path class="cls-2" d="M153.76,96.05v14.41c-6.28,1.44-10.35,5.19-11.6,11.7H118.22V54.65H142a36.83,36.83,0,0,0,1.85,4.71A13,13,0,0,0,152.51,66c1,.23,1.35.59,1.34,1.64-.06,4.31,0,8.62,0,13.15-1.58,0-3,0-4.47,0A7.66,7.66,0,0,0,149.08,96C150.58,96.15,152.09,96.05,153.76,96.05Z"/><text class="cls-3" transform="translate(57.48 100.13)">%</text><rect class="cls-4" x="102.33" y="59.87" width="3.17" height="9.48" rx="1.23"/><rect class="cls-4" x="102.33" y="75.6" width="3.17" height="9.48" rx="1.41"/><rect class="cls-4" x="102.33" y="91.33" width="3.17" height="9.48" rx="1.41"/><rect class="cls-4" x="102.33" y="107.06" width="3.17" height="9.48" rx="1.41"/></svg>