<svg id="Diseño" xmlns="http://www.w3.org/2000/svg" viewBox="0 0 176.37 176.51"><defs><style>.cls-1{fill:#ed8302;}.cls-2{fill:#fff;stroke:#ed8302;stroke-miterlimit:10;stroke-width:0.6px;}</style></defs><circle class="cls-1" cx="88.05" cy="88.4" r="87.42"/><path class="cls-2" d="M40.14,80.7c-2.61-.57-4.51-1.87-5.36-4.35A7.66,7.66,0,0,1,34.36,74c0-2.29,0-4.58,0-6.88,0-4.33,2.75-7.07,7.13-7.07H66.29a63.64,63.64,0,0,1-6.15-2.52c-3.86-2.06-6.1-5.3-5.57-9.8S57.39,39.5,62,37.91c3.32-1.13,6.44-.17,9.35,1.51,4.76,2.74,8.35,6.73,11.61,11A3.25,3.25,0,0,0,86.16,52a35.41,35.41,0,0,1,4.49,0,2.11,2.11,0,0,0,2-1,45.09,45.09,0,0,1,10.76-10.81,14.13,14.13,0,0,1,7.6-2.74c4.2-.08,7.82,2.42,9.6,6.64,2.57,6.09.09,11.73-6.33,14.29-1.41.57-2.89,1-4.34,1.66h24.49c4.7,0,7.34,2.67,7.34,7.4q0,3,0,6.08c0,3.71-1.63,5.88-5.21,7-.17,0-.33.13-.58.23V125c0,4.08-2.29,6.37-6.41,6.37H46.49c-4.08,0-6.35-2.31-6.35-6.42V80.7ZM81,126.21V80.77H45.32c0,.42-.07.76-.07,1.1,0,14.32,0,28.64,0,43,0,1.14.39,1.41,1.46,1.4,8.15,0,16.3,0,24.45,0ZM95.15,80.77v45.44H129c1.82,0,1.83,0,1.83-1.78V80.77ZM81,75.59V65.36a4.62,4.62,0,0,0-.6-.09H41.17c-1.19,0-1.67.61-1.68,1.72v6.08c0,2.25.27,2.53,2.48,2.53H81Zm14-.11a5.24,5.24,0,0,0,.55.1h39.25c1.24,0,1.74-.66,1.74-1.82,0-2.07,0-4.14,0-6.21s-.28-2.3-2.28-2.3H96.39c-.42,0-.85,0-1.33.07ZM80.58,55.76a47.56,47.56,0,0,0-8.8-9.84,24,24,0,0,0-4.2-2.69,5,5,0,0,0-4.94,0,5.61,5.61,0,0,0,.07,10,10.45,10.45,0,0,0,1.3.64C69.26,55.79,74.73,55.84,80.58,55.76Zm14.93,0c4.64.12,8.93.12,13.08-1a21.5,21.5,0,0,0,6-2.51c2.2-1.39,2.44-3.81,1.12-6.46s-3.26-3.71-5.74-3a13.12,13.12,0,0,0-3.7,1.66C102,47.35,98.72,51.31,95.51,55.74Z"/></svg>