<svg id="Diseño" xmlns="http://www.w3.org/2000/svg" viewBox="0 0 211.24 270.26"><defs><style>.cls-1{fill:#ef8502;}</style></defs><path class="cls-1" d="M195.53,233.09c-8-15.23-24-28-48.57-31.87-.78-.13-1.63-.25-2.5-.35l-15.32-2.1c.88-4.11,2.4-11.15,4.12-18.7,2.6-11.63,5.79-24.91,7.07-28.65,1.6-4.88,3.56-11.63,6.46-16.12a13.08,13.08,0,0,1,4.21-4.49,7.13,7.13,0,0,1,5.13-.73,14.1,14.1,0,0,1,2.37.59,79.94,79.94,0,0,0,11.59,3c7.85,1.38,16,.5,22.4-4.44s9.64-11.87,12.57-20.44a43.37,43.37,0,0,0,1.69-6.83,41.84,41.84,0,0,0-4.58-27c-4-7-9.83-12.64-17.69-14.58.62-1.14,1.22-2.27,1.71-3.39a31.53,31.53,0,0,0,2.1-7.44,36,36,0,0,0-.79-15.66,25.35,25.35,0,0,0-11.61-15.15,39.1,39.1,0,0,0-13.51-5.11c-9.31-1.75-19.51,1.92-26.3,9.92-1,1.12-1.92,2.16-2.78,3.09-.51-.95-1.07-1.89-1.67-2.89C126.7,16.1,119.22,6.58,106.48,4.26c-6.67-1.15-14.16.45-21.08,4.86C79.64,12.69,74,18,68.26,25.41l-1.37-.25c-5.91-.94-14.81-1.25-23.62,3.75s-16,15.24-18.84,30.83c0,.18-.06.42-.12.75-2.09,10.88,2.91,20.69,9.61,25.44,6.6,5,13.95,6.75,19.7,7.75a65.8,65.8,0,0,0,9,.86,54.24,54.24,0,0,1,22.09,10.75c9.11,7.92,17.05,19.62,14.61,42.85-2.13,18.88-3.74,30.48-4.87,37.4-.57,3.5-1,5.86-1.35,7.2-.23.32-.37.66-.56,1l-15-2.06h0a112.23,112.23,0,0,0-32,1.05c-8.35,1.57-17.27,4.52-25,10.26A40,40,0,0,0,4.61,229.35a57.9,57.9,0,0,0-.06,17.22C8,271.88,20.08,322.75,31.44,367.92s21.84,84,21.84,84c.22.79,3.36,11.42,16.81,13.62l.28.05c7.3,1.19,15.51-2.55,21.69-10.16,4-4.7,11.85-15.54,22.14-30.18,15.31-21.88,35.44-51.71,52.42-78.36,8.49-13.36,16.18-25.9,22.13-36.37,5.94-10.63,10.09-18.53,11.89-24.85.6-2.31,1.12-4.69,1.54-7.24,2.17-13.47,1.41-30.2-6.65-45.38"/></svg>