<svg id="Diseño" xmlns="http://www.w3.org/2000/svg" viewBox="0 0 176.37 176.51"><defs><style>.cls-1{fill:#ed8302;}.cls-2{fill:#fff;}</style></defs><circle class="cls-1" cx="88.19" cy="88.26" r="87.42"/><path class="cls-2" d="M88.23,56.54q18.34,0,36.71,0a9.61,9.61,0,0,1,6,1.77,9.19,9.19,0,0,1,3.75,7.86q0,13.08,0,26.17c0,6,0,12.11,0,18.16a9.08,9.08,0,0,1-7.06,9.23,10.71,10.71,0,0,1-2.47.21c-24.63,0-49.27-.05-73.9,0a9.46,9.46,0,0,1-9.61-9.64c.07-14.78,0-29.55,0-44.33a9.1,9.1,0,0,1,7-9.21,12.52,12.52,0,0,1,2.94-.25ZM48.91,61.37l.85.8L73.61,83.39l11.72,10.4c1.73,1.53,3.65,1.69,5.31.44.4-.31.78-.65,1.16-1l35.09-31.3c.15-.13.27-.3.53-.59a17.35,17.35,0,0,0-2.22-.3h-74A18.16,18.16,0,0,0,48.91,61.37Zm1.84,54h74.9l-25-24L94.42,97a9.32,9.32,0,0,1-5.17,2.47,9,9,0,0,1-7.31-2.59c-2-1.83-4.09-3.63-6.19-5.49Zm79.42-50-.23-.13-25.83,23,25.42,24.55.3-.08a24.39,24.39,0,0,0,.33-2.69q0-21.81,0-43.64ZM46.66,113.08,72.35,88.36l-26-23.19c0,.34-.06.44-.06.53q0,22.49,0,45A16.31,16.31,0,0,0,46.66,113.08Z"/></svg>