<svg id="Diseño" xmlns="http://www.w3.org/2000/svg" viewBox="0 0 327 157"><defs><style>.cls-1,.cls-2,.cls-3{font-size:44.51px;}.cls-1,.cls-2,.cls-3,.cls-4,.cls-5{fill:#fff;}.cls-1,.cls-2,.cls-3,.cls-5{font-family:Poppins-Light, Poppins;font-weight:300;}.cls-1{letter-spacing:0.03em;}.cls-2{letter-spacing:0.03em;}.cls-3{letter-spacing:0.03em;}.cls-5{font-size:58px;letter-spacing:0.03em;}</style></defs><text class="cls-1" transform="translate(6.37 23.28) scale(0.7)">SUMATE</text><text class="cls-2" transform="translate(128.8 23.28)"> </text><text class="cls-1" transform="translate(142.33 23.28) scale(0.7)">A</text><text class="cls-3" transform="translate(163.58 23.28)"> </text><text class="cls-1" transform="translate(177.11 23.28) scale(0.7)">NUESTRO</text><polygon class="cls-4" points="227.72 137.16 230.93 135.48 230.32 139.04 232.91 141.57 229.33 142.09 227.72 145.34 226.12 142.09 222.54 141.57 225.13 139.04 224.52 135.48 227.72 137.16"/><polygon class="cls-4" points="96.34 137.16 99.55 135.48 98.93 139.04 101.53 141.57 97.94 142.09 96.34 145.34 94.74 142.09 91.16 141.57 93.75 139.04 93.14 135.48 96.34 137.16"/><text class="cls-5" transform="translate(110.08 154.8) scale(0.7)">CLUB</text><path class="cls-4" d="M47.83,113.64l0,.15.06.21c1,3.78.93,6.23.45,8.11A5.17,5.17,0,1,1,42,115.77a5,5,0,0,1,4.63,1,2,2,0,0,0,.23-1.66c-.55-1.76-2.56-2.12-5.33-1.37l-20.16,5.5c-6.54,1.78-9.94.5-11.25-4.33a11.38,11.38,0,0,1,3.08-11.06A14.18,14.18,0,0,1,1.4,93.05c-2.48-9.09,2.87-16.88,14-19.92,5.54-1.51,10.4-1.31,14.24.46A3.62,3.62,0,0,0,31,70.34c-.38-1.42-1.31-1.48-1.31-1.48a5.68,5.68,0,0,1-6-4.39,5.76,5.76,0,0,1,4.13-7.22,5.8,5.8,0,0,1,7.27,4c1.33,4.89-1,9.94-3.9,13.11a14.43,14.43,0,0,1,6.38,8.86c2.52,9.23-2.8,16.86-13.95,19.9a26.33,26.33,0,0,1-8.74.94c-1,.8-2,2-1.66,3.42.33,1.21,1.11,1.84,3.66,1.14l16.62-4.53c6-1.65,11.76.61,14.3,9.37ZM15,89.35c3,11.15,4.77,13.27,8.25,12.32,3.69-1,3.81-3.63.77-14.78s-4.46-13.28-8.15-12.27C12.35,75.57,11.92,78.2,15,89.35Z"/><path class="cls-4" d="M74.23,67.3a6.74,6.74,0,0,1-5.39,8.17c-3.75.73-7.07-1.7-7.83-5.6a10,10,0,0,1-.23-1.53s-.17-.49-1.11-.31c-1.59.31-2,5-2.12,8l4.56,23.4c1-.12,2-.16,3-.29L65.5,101c-3.31.35-6.66.85-10,1.5s-6.55,1.42-9.82,2.36L45.34,103c1-.34,1.91-.6,2.9-.87l-3-15.38L42,70.57a20,20,0,0,1-3,.36l-.37-1.88c5.17-.78,10.38-1.79,15.22-4.61l1.3-.25,1.36,6.93c.7-2.54,2.78-8,8.56-9.16C69.85,61,73.42,63.18,74.23,67.3Z"/><path class="cls-4" d="M91.4,76.54l.16,1.31c1.6,13.15,3,16.24,9.23,15.48,8.54-1,11.23-10,11.23-10l1.1.54a15.79,15.79,0,0,1-14,12.53c-12,1.47-20.33-5-21.77-16.76C75.9,68.05,82.09,59.81,93.42,57.9h.15l.43-.06.37,0c10.42-.9,16.41,5.11,18.55,15.3l.1.8Zm-.22-1.76,9-1.1c-1.58-11.66-2.87-14.32-6-14.17C91,60.13,90,63.07,91.18,74.78Z"/><path class="cls-4" d="M129.89,73l.06,1.32c.65,13.23,1.84,16.41,8.09,16.11C146.64,90,150,81.22,150,81.22l1.07.61a15.78,15.78,0,0,1-14.91,11.49c-12.06.59-19.92-6.46-20.5-18.3-.57-11.61,6.2-19.38,17.64-20.46h.15l.44,0,.37,0c10.45-.14,16,6.29,17.39,16.61l0,.81Zm-.09-1.77,9-.44c-.72-11.75-1.81-14.5-4.91-14.57C130.63,56.6,129.45,59.46,129.8,71.23Z"/><path class="cls-4" d="M198.86,91.38l-.05,1.91a115.84,115.84,0,0,0-20.16-.59l.06-1.91,2.8-.14.79-27c.07-2.28-1-4.08-3.7-4.16a8.83,8.83,0,0,0-6.35,2.91l-.82,27.95c1,0,2.06.21,3.08.31l0,1.92A114.86,114.86,0,0,0,154.3,92l.06-1.91,2.95-.13.95-32.22a21.78,21.78,0,0,1-3-.31l.05-1.92c1.33.12,2.72.16,4,.2a34.53,34.53,0,0,0,11.82-1.35l1.32,0-.19,6.55a16.7,16.7,0,0,1,13.44-6.53c7,.21,10.91,4.81,10.66,13.27L195.71,91C196.74,91.1,197.84,91.28,198.86,91.38Z"/><path class="cls-4" d="M233.39,77.34l-.19,1.31C231.28,91.76,231.83,95.11,238,96c8.52,1.25,13.48-6.73,13.48-6.73l.92.81a15.77,15.77,0,0,1-16.84,8.39c-12-1.74-18.3-10.18-16.58-21.91,1.68-11.5,9.82-17.82,21.25-16.67l.15,0,.43.06.37.06c10.28,1.87,14.49,9.26,13.86,19.65l-.12.8Zm.25-1.75,9,1.31c1.56-11.67,1-14.58-2-15.24C237.28,61.4,235.57,64,233.64,75.59Z"/><path class="cls-4" d="M270.11,83a16.2,16.2,0,0,1,6.62,3.13l2.82-12.72c.53-2.37.61-4.77-3.27-5.63s-5.61,1.17-5.61,1.17c1.92,1.86,2.94,4,2.53,5.91a6,6,0,0,1-7.3,4.34,5.56,5.56,0,0,1-4.2-6.89c1.2-5.39,8.18-7.31,16.16-5.54,12.28,2.73,15.54,9.48,13.89,16.89L288,100.46c-.51,2.3.15,3.73,1.88,4.11a3.07,3.07,0,0,0,3.35-1.52l.94.21s-2.76,6.32-11,4.51c-5.46-1.22-8.12-3.16-8.93-6.28-1.37,1.42-4.43,3.31-10,2.08-7.48-1.66-10.93-6.12-9.39-13.09C256.39,84,262.28,81.25,270.11,83Zm1.44,18a3.37,3.37,0,0,0,2.58-.41,17.49,17.49,0,0,1,.43-4.65l1.93-8.7-.43-.09c-4.31-1-7.07,1.6-8,5.76C267.1,97.25,268.39,100.25,271.55,101Z"/><path class="cls-4" d="M320.5,108.18c-4.09,4.1-9.88,7.19-15.68,5.52-6.72-1.94-9.39-7.3-7-15.5l6-21L300,75.86l.53-1.84,3.83,1.33L306.49,68c8.84,2.54,13.53-1,13.53-1l1.35.39-3.44,12c2.47.71,4.92,1.26,7.86,2l-.53,1.84c-3-.65-5.32-1.23-7.88-1.89l-7,24.33c-.7,2.4,0,4.22,1.92,4.76,3,.88,6.93-2.52,6.93-2.52Z"/></svg>